<svg width="280" height="280" viewBox="0 0 280 280" fill="none" xmlns="http://www.w3.org/2000/svg">
<path d="M137.523 211.946C130.853 234.056 114.443 256.856 93.4929 267.306C64.2629 281.896 41.5029 257.576 27.7029 234.086C7.52292 199.746 -0.967082 156.986 9.50292 118.126C28.3129 48.3163 106.123 2.60625 176.313 23.1363C261.223 47.9663 302.323 161.046 257.663 236.176C236.263 272.176 185.853 281.236 158.603 247.136C150.443 236.916 142.973 224.486 145.513 210.806" fill="#E5E5E5"/>
<path opacity="0.5" d="M55.1825 165.556C57.0658 165.556 58.5925 164.03 58.5925 162.146C58.5925 160.263 57.0658 158.736 55.1825 158.736C53.2992 158.736 51.7725 160.263 51.7725 162.146C51.7725 164.03 53.2992 165.556 55.1825 165.556Z" fill="white"/>
<path opacity="0.5" d="M58.5926 224.176C60.4759 224.176 62.0026 222.65 62.0026 220.766C62.0026 218.883 60.4759 217.356 58.5926 217.356C56.7093 217.356 55.1826 218.883 55.1826 220.766C55.1826 222.65 56.7093 224.176 58.5926 224.176Z" fill="white"/>
<path opacity="0.5" d="M194.992 63.0368C196.875 63.0368 198.402 61.5101 198.402 59.6268C198.402 57.7435 196.875 56.2168 194.992 56.2168C193.109 56.2168 191.582 57.7435 191.582 59.6268C191.582 61.5101 193.109 63.0368 194.992 63.0368Z" fill="white"/>
<path opacity="0.5" d="M189.003 252.787C190.886 252.787 192.413 251.26 192.413 249.377C192.413 247.493 190.886 245.967 189.003 245.967C187.119 245.967 185.593 247.493 185.593 249.377C185.593 251.26 187.119 252.787 189.003 252.787Z" fill="white"/>
<path opacity="0.5" d="M108.633 236.927C109.671 236.927 110.513 236.085 110.513 235.047C110.513 234.009 109.671 233.167 108.633 233.167C107.595 233.167 106.753 234.009 106.753 235.047C106.753 236.085 107.595 236.927 108.633 236.927Z" fill="white"/>
<path opacity="0.5" d="M93.7921 94.7971C94.8304 94.7971 95.6721 93.9554 95.6721 92.9171C95.6721 91.8788 94.8304 91.0371 93.7921 91.0371C92.7538 91.0371 91.9121 91.8788 91.9121 92.9171C91.9121 93.9554 92.7538 94.7971 93.7921 94.7971Z" fill="white"/>
<path opacity="0.5" d="M194.992 119.337C196.031 119.337 196.872 118.495 196.872 117.457C196.872 116.419 196.031 115.577 194.992 115.577C193.954 115.577 193.112 116.419 193.112 117.457C193.112 118.495 193.954 119.337 194.992 119.337Z" fill="white"/>
<path opacity="0.5" d="M250.912 214.227C251.951 214.227 252.792 213.385 252.792 212.347C252.792 211.308 251.951 210.467 250.912 210.467C249.874 210.467 249.032 211.308 249.032 212.347C249.032 213.385 249.874 214.227 250.912 214.227Z" fill="white"/>
<path d="M261.433 155.366C259.513 158.856 245.343 154.746 229.783 146.186C214.223 137.626 203.163 127.856 205.093 124.366C206.003 122.706 209.673 122.766 214.943 124.196C220.773 125.776 228.573 129.046 236.743 133.546C245.913 138.596 253.523 144.056 257.823 148.406C260.823 151.446 262.223 153.936 261.433 155.366Z" stroke="#AFAFAF" stroke-width="3.5027" stroke-miterlimit="10"/>
<path d="M233.543 160.796C244.799 160.796 253.923 151.672 253.923 140.416C253.923 129.161 244.799 120.036 233.543 120.036C222.288 120.036 213.163 129.161 213.163 140.416C213.163 151.672 222.288 160.796 233.543 160.796Z" fill="#CCCCCC"/>
<path d="M259.033 149.706C261.183 152.146 262.103 154.146 261.433 155.366C259.513 158.856 245.343 154.746 229.783 146.186C214.223 137.626 203.163 127.856 205.093 124.366C205.893 122.916 208.783 122.776 213.013 123.716" stroke="#AFAFAF" stroke-width="3.5027" stroke-miterlimit="10"/>
<path d="M95.2732 112.506C85.5032 119.676 71.7732 117.556 64.6032 107.786C57.4332 98.0163 59.5532 84.2863 69.3232 77.1163C70.4332 76.2963 71.6032 75.6063 72.8132 75.0263C64.7432 73.6163 56.1332 75.3563 49.0132 80.5863C35.1332 90.7663 32.1332 110.266 42.3132 124.136C52.4932 138.016 71.9932 141.016 85.8632 130.836C92.9932 125.606 97.2432 117.926 98.3132 109.806C97.3932 110.786 96.3832 111.686 95.2732 112.506Z" fill="white"/>
<path d="M142.902 222.446C151.303 222.446 158.112 215.637 158.112 207.236C158.112 198.836 151.303 192.026 142.902 192.026C134.502 192.026 127.692 198.836 127.692 207.236C127.692 215.637 134.502 222.446 142.902 222.446Z" fill="#E5E5E5"/>
<path d="M69.2427 189.656L69.1827 193.606C69.1727 194.526 69.9127 195.286 70.8327 195.306L127.263 196.096L127.533 176.766L131.253 176.816L121.623 132.906L80.0027 167.226C73.3027 172.756 69.3627 180.956 69.2427 189.656Z" fill="#72ACF1"/>
<path d="M214.033 191.836L213.963 195.786C213.943 196.706 213.183 197.446 212.263 197.426L155.833 196.426L156.173 177.096L152.453 177.026L163.463 133.446L203.973 169.066C210.513 174.816 214.193 183.136 214.033 191.836Z" fill="#72ACF1"/>
<path d="M129.193 210.347L151.393 210.667L158.693 222.547L122.873 222.047L129.193 210.347Z" fill="#F7B548"/>
<path d="M171.183 196.687L111.293 195.847L112.503 109.807C112.963 76.7466 121.943 44.3666 138.553 15.7766L141.493 10.7166C142.553 8.89656 145.183 8.93656 146.193 10.7866L148.993 15.9266C164.793 44.9666 172.853 77.5966 172.393 110.657L171.183 196.687Z" fill="#A7CBF6"/>
<path d="M148.993 15.9165L145.893 10.2265C145.023 8.61649 142.723 8.58649 141.803 10.1665L138.553 15.7665C126.493 36.5065 118.493 59.2565 114.812 82.8065C122.782 85.1965 131.203 86.5665 139.943 86.6865C150.673 86.8365 160.993 85.1265 170.613 81.8765C167.463 58.8465 160.183 36.4865 148.993 15.9165Z" fill="#72ACF1"/>
<path d="M140.583 151.817C152.413 151.817 162.003 142.227 162.003 130.397C162.003 118.567 152.413 108.977 140.583 108.977C128.753 108.977 119.163 118.567 119.163 130.397C119.163 142.227 128.753 151.817 140.583 151.817Z" fill="#3E8EED"/>
<path d="M140.582 146.407C149.424 146.407 156.592 139.239 156.592 130.397C156.592 121.555 149.424 114.387 140.582 114.387C131.74 114.387 124.572 121.555 124.572 130.397C124.572 139.239 131.74 146.407 140.582 146.407Z" fill="white"/>
<path d="M166.673 211.607L115.423 210.887C113.033 210.857 111.113 208.887 111.143 206.487L111.293 195.837L171.223 196.677L171.073 207.327C171.043 209.727 169.073 211.637 166.673 211.607Z" fill="#72ACF1"/>
</svg>
